<?xml version="1.0" encoding="UTF-8"?>
<svg version="1.1" xmlns="http://www.w3.org/2000/svg" width="425" height="402">
<path d="M0 0 C1.86205496 -0.01176 3.72407056 -0.03256675 5.5859375 -0.06152344 C21.86024014 -0.31037874 36.96484639 1.42262406 52.18212891 7.60766602 C52.92970459 7.90471436 53.67728027 8.2017627 54.44750977 8.5078125 C59.44832865 10.58452097 63.60428174 13.02284191 67.68603516 16.62719727 C69.72056956 18.38224008 71.81482412 19.67016282 74.11962891 21.04516602 C89.16183148 30.96884132 99.99796684 52.35282104 104.04150391 69.37329102 C105.25267023 75.49459109 105.76619395 81.42984967 105.75334167 87.66242981 C105.75560723 88.4780656 105.75787279 89.29370139 105.760207 90.13405341 C105.76651073 92.85289267 105.76571997 95.57168161 105.76489258 98.29052734 C105.76788633 100.24575362 105.77128936 102.20097931 105.77507019 104.15620422 C105.78389231 109.45794812 105.78624755 114.75967587 105.78688598 120.0614264 C105.78759748 123.37639359 105.78973371 126.69135669 105.79238319 130.00632286 C105.80163063 141.5785994 105.80571882 153.15086442 105.80493164 164.72314453 C105.80433098 175.49821078 105.8148821 186.27322696 105.8306753 197.04828054 C105.84376457 206.30965021 105.84911496 215.57100353 105.84847623 224.83238238 C105.84822166 230.35915208 105.85105055 235.88587725 105.86165428 241.41263771 C105.87135859 246.61240445 105.87139843 251.81208431 105.86413765 257.01185417 C105.86309472 258.91531629 105.86543732 260.81878388 105.87149811 262.72223663 C105.90449183 273.80610178 105.84016353 283.88108262 101.61962891 294.29516602 C100.99142337 297.63293939 100.42937828 300.96429048 99.93994141 304.32446289 C99.12643745 309.20086443 97.58755531 312.24259742 94.61962891 316.29516602 C93.98283203 317.44243164 93.34603516 318.58969727 92.68994141 319.77172852 C90.64418997 323.39910277 88.20454564 326.51793216 85.49462891 329.67016602 C84.77774902 330.5093457 84.77774902 330.5093457 84.04638672 331.36547852 C77.67458098 338.69074496 70.55442359 344.74080973 62.61962891 350.29516602 C62.02279297 350.93711914 61.42595703 351.57907227 60.81103516 352.24047852 C49.30437642 363.02925301 29.16219135 363.77614947 14.32666016 363.49829102 C10.69170833 363.37904035 7.08369856 363.09026245 3.45947266 362.79125977 C-6.56299328 362.0575351 -16.58548094 362.10167162 -26.63037109 362.10766602 C-27.72045471 362.10660858 -28.81053833 362.10555115 -29.93365479 362.10446167 C-46.24800109 362.09995374 -62.54818135 362.3753484 -78.85693359 362.77954102 C-79.78016922 362.80240866 -80.70340485 362.8252763 -81.65461731 362.8488369 C-90.96283874 363.08131663 -100.27061188 363.32732281 -109.57791328 363.59414482 C-113.09301492 363.69420159 -116.60822465 363.79007775 -120.12345505 363.88549042 C-122.56216665 363.95363475 -125.00061165 364.02847908 -127.43911743 364.10357666 C-128.92587363 364.14442523 -130.41263876 364.18495059 -131.89941406 364.22509766 C-133.18073212 364.26284805 -134.46205017 364.30059845 -135.78219604 364.3394928 C-139.40537038 364.29485804 -142.8038066 363.84823012 -146.38037109 363.29516602 C-149.09596186 363.27130318 -151.77822982 363.29316598 -154.48974609 363.37329102 C-156.05636095 363.40473636 -157.62301468 363.43429028 -159.18969727 363.4621582 C-159.99780853 363.47678101 -160.8059198 363.49140381 -161.63851929 363.50646973 C-175.93961225 363.72855325 -188.85250508 363.44793167 -202.38037109 358.29516602 C-203.87890625 357.79436523 -203.87890625 357.79436523 -205.40771484 357.28344727 C-213.54251279 354.38427867 -220.34913809 349.49046294 -226.67724609 343.68969727 C-228.4217216 342.17992075 -228.4217216 342.17992075 -230.81787109 340.92016602 C-242.46880163 333.53177104 -252.23994619 315.07910568 -256.38037109 302.29516602 C-256.62843506 301.57198685 -256.87649902 300.84880768 -257.13208008 300.10371399 C-260.22039808 289.78213391 -259.73910896 279.44289876 -259.63818359 268.78344727 C-259.63002216 266.68573012 -259.62336818 264.58800664 -259.61813354 262.49028015 C-259.60109282 256.98102838 -259.56693497 251.47202676 -259.52807617 245.96289062 C-259.46885898 237.21211717 -259.43283981 228.46120051 -259.40007782 219.71029282 C-259.39214844 217.59242401 -259.38362897 215.47455733 -259.37451935 213.35669327 C-259.32501587 201.06822329 -259.39881683 188.83145988 -260.01545715 176.55593872 C-260.59745426 164.80538133 -260.4710187 153.0565441 -260.38037109 141.29516602 C-260.37245544 140.03899475 -260.36453979 138.78282349 -260.35638428 137.48858643 C-260.30492128 129.53711888 -260.22437317 121.58668199 -260.11791992 113.63574219 C-260.08233245 110.91636311 -260.05494011 108.1970692 -260.03393555 105.47753906 C-260.00287204 101.47504073 -259.94827984 97.47317251 -259.89208984 93.47094727 C-259.88569992 92.26263748 -259.87931 91.0543277 -259.87272644 89.80940247 C-259.75796948 83.23783708 -259.07744057 78.29528521 -256.38037109 72.29516602 C-255.94541453 70.43316097 -255.56159495 68.55761852 -255.25537109 66.67016602 C-255.10841797 65.79102539 -254.96146484 64.91188477 -254.81005859 64.00610352 C-254.50950811 62.10990318 -254.24411399 60.20794784 -254.00537109 58.30297852 C-251.26041514 45.09287799 -237.15948144 28.92345949 -226.38037109 21.29516602 C-225.72037109 21.29516602 -225.06037109 21.29516602 -224.38037109 21.29516602 C-224.38037109 20.63516602 -224.38037109 19.97516602 -224.38037109 19.29516602 C-222.80615234 17.92797852 -222.80615234 17.92797852 -220.69287109 16.42016602 C-218.40422238 14.77371816 -216.20944357 13.14658386 -214.07958984 11.29516602 C-210.88090928 8.92508722 -207.58323252 7.53172401 -203.88037109 6.17016602 C-203.24873047 5.91879883 -202.61708984 5.66743164 -201.96630859 5.40844727 C-191.71538338 1.56937527 -180.84248064 0.99484065 -170.0012207 1.08398438 C-168.25631851 1.08595573 -168.25631851 1.08595573 -166.47616577 1.08796692 C-162.66159655 1.09441069 -158.84723397 1.1148499 -155.03271484 1.13500977 C-152.33500974 1.14254162 -149.6373027 1.14668114 -146.93959045 1.15077209 C-140.56195857 1.16210932 -134.18439826 1.1827707 -127.80680615 1.20766979 C-115.14787519 1.25708953 -102.48890874 1.29374337 -89.82990551 1.31847262 C-88.4642061 1.32116584 -87.09850696 1.32399477 -85.73280811 1.32695889 C-65.44590844 1.37035588 -45.2033368 1.12428097 -24.92984009 0.41049194 C-16.62180398 0.14055524 -8.31204132 0.03624222 0 0 Z " fill="#10D77F" transform="translate(291.38037109375,22.704833984375)"/>
<path d="M0 0 C1.010625 0.391875 2.02125 0.78375 3.0625 1.1875 C4.0215625 1.5896875 4.0215625 1.5896875 5 2 C5 2.66 5 3.32 5 4 C5.70125 4.165 6.4025 4.33 7.125 4.5 C14.39110527 8.29101144 18.49429324 17.48287971 21 25 C21.08840088 26.85594728 21.11762704 28.71495117 21.11352539 30.57299805 C21.11341209 32.28443245 21.11341209 32.28443245 21.11329651 34.03044128 C21.10813522 35.26176285 21.10297394 36.49308441 21.09765625 37.76171875 C21.0962413 39.02264847 21.09482635 40.28357819 21.09336853 41.5827179 C21.08871575 44.93151709 21.07973342 48.28024811 21.06866455 51.62902832 C21.05842687 55.04760143 21.05386586 58.46618159 21.04882812 61.88476562 C21.03779099 68.58986261 21.02104686 75.29492737 21 82 C21.99692619 81.98667633 21.99692619 81.98667633 23.01399231 81.9730835 C29.97400249 81.8841206 36.93384933 81.82406355 43.89428711 81.78027344 C46.48680185 81.76024279 49.07927188 81.73301033 51.67163086 81.69824219 C55.41271033 81.64934859 59.1531889 81.62694461 62.89453125 81.609375 C64.61395683 81.57840729 64.61395683 81.57840729 66.36811829 81.54681396 C78.75378549 81.5434131 87.98630278 85.33123871 96.90625 93.8125 C103.65312464 100.90243607 106.20311883 107.79661776 106.4375 117.5625 C106.066058 129.48459002 101.96691154 138.55344644 93.25 146.8125 C85.13322521 153.52714479 75.77742258 155.14201301 65.52880859 155.17700195 C64.68743347 155.18357315 63.84605835 155.19014435 62.97918701 155.19691467 C60.20226947 155.2165793 57.42540591 155.22829644 54.6484375 155.23828125 C53.2196118 155.24439454 53.2196118 155.24439454 51.76192093 155.25063133 C46.7177477 155.27146526 41.67360143 155.28577726 36.62939453 155.29516602 C31.44130532 155.30621097 26.25364728 155.34059659 21.06571007 155.38033772 C17.05745696 155.40658928 13.04930516 155.41486552 9.04097366 155.41844749 C7.12976807 155.42329318 5.21856639 155.43484899 3.30744553 155.45348549 C-15.80010569 155.62820054 -15.80010569 155.62820054 -25 151 C-25.99515625 150.51917969 -26.9903125 150.03835937 -28.015625 149.54296875 C-40.01967693 142.26079039 -47.7280304 132.27940308 -51.36096191 118.56225586 C-52.7544917 110.79415915 -52.42756083 102.85979388 -52.3984375 94.9921875 C-52.40046226 93.05648692 -52.40337704 91.1207871 -52.40713501 89.18508911 C-52.41153731 85.1456164 -52.40519373 81.10634383 -52.39111328 77.06689453 C-52.37399968 71.90795958 -52.38388975 66.74949221 -52.40183067 61.59057426 C-52.41270566 57.59954344 -52.40920555 53.60862229 -52.4014473 49.61758804 C-52.39945675 47.71592273 -52.40186398 45.81424723 -52.40888596 43.91259384 C-52.41656454 41.24989421 -52.4048084 38.58793771 -52.38818359 35.92529297 C-52.39425629 35.15206696 -52.40032898 34.37884094 -52.40658569 33.58218384 C-52.29770045 24.09698307 -48.70659901 15.52349825 -43 8 C-40.50788171 5.67402292 -37.88143007 3.810669 -35 2 C-33.7625 1.13375 -33.7625 1.13375 -32.5 0.25 C-22.33530696 -4.83234652 -10.29297317 -4.38681809 0 0 Z " fill="#0B9954" transform="translate(230,87)"/>
<path d="M0 0 C1.73699409 0.00848969 1.73699409 0.00848969 3.50907898 0.01715088 C7.15623849 0.03928767 10.80236336 0.08944106 14.44921875 0.140625 C16.94334505 0.16071932 19.43748696 0.1789649 21.93164062 0.1953125 C28.00034454 0.23907762 34.0684577 0.30575758 40.13671875 0.390625 C40.14606445 1.35250732 40.15541016 2.31438965 40.16503906 3.30541992 C40.20547778 6.93834621 40.27137227 10.57047252 40.34423828 14.20288086 C40.37214044 15.76299619 40.39350476 17.32324481 40.40771484 18.88354492 C40.56004836 34.68053042 43.14532005 48.61373236 54.23828125 60.67578125 C63.34922973 69.28772018 73.99332743 73.60701007 86.4765625 73.8046875 C87.24351944 73.82405365 88.01047638 73.8434198 88.80067444 73.8633728 C91.22507981 73.92265058 93.64953403 73.96934411 96.07421875 74.015625 C97.72853513 74.05385262 99.38283262 74.09290706 101.03710938 74.1328125 C105.07015719 74.22830863 109.10329802 74.31252807 113.13671875 74.390625 C113.26432632 82.00355977 113.35140716 89.616215 113.41137695 97.22998047 C113.43639794 99.8156973 113.47042547 102.40134428 113.51391602 104.98681641 C113.57511302 108.72055375 113.60305444 112.45334962 113.625 116.1875 C113.65080643 117.32862244 113.67661285 118.46974487 113.70320129 119.64544678 C113.7069634 130.60571473 110.18219155 139.9562858 103.1640625 148.41796875 C99.62373712 151.86279402 95.55188352 154.22563263 91.13671875 156.390625 C90.03263672 156.95330078 90.03263672 156.95330078 88.90625 157.52734375 C80.12209471 160.26542319 67.42144349 159.81423737 59.19921875 155.703125 C49.79765878 149.72031411 43.24750263 141.15870723 40.13671875 130.390625 C39.89620972 127.50515747 39.89620972 127.50515747 39.90966797 124.47705078 C39.90981903 123.33632111 39.90997009 122.19559143 39.91012573 121.02029419 C39.9204483 119.80445648 39.93077087 118.58861877 39.94140625 117.3359375 C39.94423615 116.07925262 39.94706604 114.82256775 39.94998169 113.52780151 C39.95925752 110.20361636 39.97719494 106.87971076 39.99938965 103.55560303 C40.01993063 100.15688479 40.02900097 96.75813756 40.0390625 93.359375 C40.06108496 86.70304833 40.09453442 80.04685279 40.13671875 73.390625 C39.43007584 73.39950745 38.72343292 73.40838989 37.99537659 73.4175415 C31.3024127 73.49803189 24.60958591 73.55876298 17.91624546 73.59787369 C14.47593426 73.61865777 11.0360264 73.64680389 7.59594727 73.69238281 C3.63172403 73.74457146 -0.33234173 73.76364621 -4.296875 73.78125 C-5.51910263 73.80189514 -6.74133026 73.82254028 -8.00059509 73.84381104 C-18.8592496 73.84663791 -26.83410791 70.72382349 -34.86328125 63.390625 C-42.76887858 54.91903802 -45.4743484 45.95744801 -45.3359375 34.58056641 C-45.09905845 28.80663967 -44.072151 24.27890321 -40.86328125 19.390625 C-40.43917969 18.70871094 -40.01507813 18.02679688 -39.578125 17.32421875 C-30.13188586 3.45745545 -16.1240097 -0.30477781 0 0 Z " fill="#FCFEFD" transform="translate(137.86328125,167.609375)"/>
<path d="M0 0 C4.3375321 -0.07517053 8.67470103 -0.12907363 13.01269531 -0.16479492 C14.48281473 -0.17971429 15.952891 -0.20005727 17.42285156 -0.22631836 C34.80829513 -0.52872546 47.94533884 2.74709815 60.9609375 14.796875 C66.34219234 20.61110436 69.55673053 27.54159845 72 35 C72.18747803 35.56879883 72.37495605 36.13759766 72.56811523 36.72363281 C73.21852839 40.15181385 73.12173544 43.57148416 73.09765625 47.046875 C73.0962413 47.81807678 73.09482635 48.58927856 73.09336853 49.3838501 C73.08778534 51.83927338 73.07523595 54.29460442 73.0625 56.75 C73.05748283 58.41796743 73.0529203 60.08593629 73.04882812 61.75390625 C73.03782141 65.83597287 73.02056836 69.91797081 73 74 C68.21693814 74.09992737 63.43450243 74.17195954 58.65063477 74.21972656 C57.02813107 74.23966813 55.40569758 74.26683174 53.78344727 74.30175781 C44.10651829 74.50466597 35.88265054 74.38406688 27 70 C26.00484375 69.51917969 25.0096875 69.03835937 23.984375 68.54296875 C11.93869958 61.23553978 4.12914054 51.1460873 0.56689453 37.34033203 C-0.61347353 30.38520892 -0.30458233 23.34406701 -0.1875 16.3125 C-0.17241751 14.72462215 -0.15873545 13.13673035 -0.14648438 11.54882812 C-0.11377999 7.69886779 -0.06219823 3.84959216 0 0 Z " fill="#7ED857" transform="translate(178,168)"/>
<path d="M0 0 C2.43652827 0.00119459 4.87305702 0.00164437 7.30958557 0.00138855 C12.39888421 0.00294628 17.48811181 0.01118025 22.57739258 0.0246582 C29.06738666 0.0416376 35.55730285 0.04547225 42.04731655 0.04471302 C47.07392608 0.04498632 52.10051893 0.0504932 57.12712288 0.05771446 C59.51867611 0.06087352 61.91023122 0.062862 64.30178642 0.06360817 C93.54542831 0.08272576 93.54542831 0.08272576 99.94140625 1.23046875 C100.27140625 1.89046875 100.60140625 2.55046875 100.94140625 3.23046875 C100.28543457 3.2555249 99.62946289 3.28058105 98.95361328 3.30639648 C95.99100442 3.42220135 93.02872594 3.54499761 90.06640625 3.66796875 C89.03386719 3.70728516 88.00132812 3.74660156 86.9375 3.78710938 C85.95136719 3.82900391 84.96523437 3.87089844 83.94921875 3.9140625 C83.0380127 3.95072021 82.12680664 3.98737793 81.18798828 4.02514648 C78.90657144 4.0962394 78.90657144 4.0962394 76.94140625 5.23046875 C76.94140625 4.57046875 76.94140625 3.91046875 76.94140625 3.23046875 C76.20304535 3.23268936 75.46468445 3.23490997 74.70394897 3.23719788 C67.73036957 3.25727214 60.7567945 3.27247923 53.78319359 3.28228092 C50.198386 3.28748953 46.61360239 3.29455032 43.02880859 3.3059082 C39.56640005 3.31680912 36.1040145 3.32276081 32.64159012 3.32534599 C30.6840972 3.32808064 28.72661347 3.33588119 26.76913452 3.34376526 C24.96794662 3.34387856 24.96794662 3.34387856 23.13037109 3.34399414 C21.55151627 3.34732506 21.55151627 3.34732506 19.94076538 3.35072327 C16.94140625 3.23046875 16.94140625 3.23046875 13.61709595 2.66087341 C12.73411835 2.51883987 11.85114075 2.37680634 10.94140625 2.23046875 C10.61140625 2.56046875 10.28140625 2.89046875 9.94140625 3.23046875 C8.44402501 3.32837445 6.94197733 3.36021739 5.44140625 3.35546875 C4.62671875 3.35804687 3.81203125 3.360625 2.97265625 3.36328125 C0.94140625 3.23046875 0.94140625 3.23046875 -0.05859375 2.23046875 C-1.70723332 2.1310401 -3.36008488 2.09966693 -5.01171875 2.09765625 C-6.02363281 2.09636719 -7.03554687 2.09507813 -8.078125 2.09375 C-9.14417969 2.09761719 -10.21023437 2.10148437 -11.30859375 2.10546875 C-12.35917969 2.10160156 -13.40976563 2.09773438 -14.4921875 2.09375 C-15.50925781 2.09503906 -16.52632812 2.09632812 -17.57421875 2.09765625 C-18.50524414 2.09878418 -19.43626953 2.09991211 -20.39550781 2.10107422 C-23.04685846 2.22989855 -25.46746029 2.67555633 -28.05859375 3.23046875 C-29.82837136 3.29505917 -31.60029527 3.3165794 -33.37109375 3.29296875 C-34.25410156 3.28394531 -35.13710937 3.27492188 -36.046875 3.265625 C-36.71074219 3.25402344 -37.37460938 3.24242187 -38.05859375 3.23046875 C-38.05859375 2.90046875 -38.05859375 2.57046875 -38.05859375 2.23046875 C-25.49510496 -0.51804165 -12.78626729 -0.04156256 0 0 Z " fill="#33C681" transform="translate(134.05859375,23.76953125)"/>
<path d="M0 0 C2.07928933 4.15857865 0.63447503 9.95910531 -0.703125 14.26171875 C-1.44934326 16.18213338 -2.223683 18.09155404 -3 20 C-3.37966646 21.65672637 -3.73760976 23.32070245 -4 25 C-4.66 25 -5.32 25 -6 25 C-5.96970703 25.72240875 -5.93941406 26.4448175 -5.90820312 27.18911743 C-5.24600265 43.554861 -4.90851479 59.89444378 -4.9375 76.2734375 C-4.93894012 77.13406044 -4.94038025 77.99468338 -4.94186401 78.8813858 C-4.95401757 85.04595276 -4.97616245 91.2104689 -5 97.375 C-5.02373336 103.64660887 -5.04392717 109.91819537 -5.05593872 116.18983841 C-5.06239939 118.67227818 -5.07487317 121.15464031 -5.08764648 123.63705444 C-5.09127237 125.1335239 -5.0946249 126.62999406 -5.09765625 128.12646484 C-5.10289307 129.4341684 -5.10812988 130.74187195 -5.11352539 132.08920288 C-5.33411578 134.89222167 -5.33411578 134.89222167 -4 136 C-3.8125 138.9375 -3.8125 138.9375 -4 142 C-4.99 142.99 -4.99 142.99 -6 144 C-6.90868629 137.5628358 -7.30808637 131.18130355 -7.5625 124.6875 C-7.60568359 123.75744141 -7.64886719 122.82738281 -7.69335938 121.86914062 C-8.57463526 100.06105968 -8.02964206 78.15687295 -7.73754883 56.34057617 C-7.70196136 53.62119709 -7.67456902 50.90190318 -7.65356445 48.18237305 C-7.62250095 44.17987472 -7.56790875 40.17800649 -7.51171875 36.17578125 C-7.50532883 34.96747147 -7.4989389 33.75916168 -7.49235535 32.51423645 C-7.37758047 25.94164509 -6.69620656 21.00123395 -4 15 C-3.54394398 13.07578505 -3.13895983 11.13788823 -2.8125 9.1875 C-2.65394531 8.27355469 -2.49539062 7.35960938 -2.33203125 6.41796875 C-1.93197919 3.91142498 -1.93197919 3.91142498 -2 1 C-1.34 0.67 -0.68 0.34 0 0 Z " fill="#25BC78" transform="translate(39,80)"/>
<path d="M0 0 C2.24243645 3.36365467 2.8893308 6.35420951 3.60371399 10.24780273 C3.73468863 10.96010009 3.86566327 11.67239744 4.00060683 12.40627956 C5.23832306 19.62050473 5.40176825 26.72227493 5.34057617 34.03515625 C5.33972672 35.45621726 5.34021122 36.87727958 5.34190369 38.29833984 C5.34275268 42.0990441 5.32530824 45.89945526 5.30418181 49.70009232 C5.28522873 53.69319358 5.28365009 57.68630405 5.28010559 61.67944336 C5.27083917 69.21549207 5.24629987 76.75140778 5.21605712 84.28739834 C5.18234323 92.87767172 5.16598471 101.46795198 5.15097082 110.05827522 C5.11974445 127.70559177 5.067091 145.35278514 5 163 C4.67 163 4.34 163 4 163 C3.29371105 157.16009991 2.8193637 151.40992537 2.68359375 145.53125 C2.65235413 144.35121399 2.65235413 144.35121399 2.6204834 143.14733887 C2.55490604 140.59831586 2.49575395 138.04920015 2.4375 135.5 C2.41632111 134.62859375 2.39514221 133.7571875 2.37332153 132.859375 C1.95609043 115.57143494 1.88540145 98.29203896 2 81 C1.67 81 1.34 81 1 81 C0.97310784 79.52093108 0.95365379 78.04172517 0.9375 76.5625 C0.92589844 75.73878906 0.91429687 74.91507812 0.90234375 74.06640625 C1 72 1 72 2 71 C2.10420815 69.23743983 2.13854017 67.47070336 2.14526367 65.70507812 C2.15164352 64.57299927 2.15802338 63.44092041 2.16459656 62.27453613 C2.16570938 61.03925171 2.1668222 59.80396729 2.16796875 58.53125 C2.17129715 57.2666394 2.17462555 56.00202881 2.17805481 54.69909668 C2.18313209 52.01225287 2.18589394 49.32551006 2.18530273 46.63867188 C2.18520181 43.2170788 2.19877564 39.79569655 2.21607494 36.37415314 C2.22997281 33.09319363 2.22928706 29.8122349 2.23046875 26.53125 C2.23765427 25.31215942 2.24483978 24.09306885 2.25224304 22.83703613 C2.23661816 16.95962523 1.99378979 11.5669973 0.42939758 5.88366699 C0 4 0 4 0 0 Z " fill="#31C17E" transform="translate(392,83)"/>
<path d="M0 0 C1.98541272 -0.00067597 3.97082535 -0.00164841 5.95623779 -0.00289917 C10.06360686 -0.00435551 14.17095385 -0.00228453 18.27832031 0.00244141 C23.55195437 0.0082135 28.82553835 0.00480029 34.09917068 -0.00113106 C38.17389308 -0.00472892 42.24860337 -0.00360299 46.32332611 -0.00100327 C48.27067826 -0.00033571 50.21803151 -0.00115644 52.16538239 -0.00348282 C54.86191277 -0.00600461 57.55835877 -0.00217902 60.25488281 0.00341797 C61.46235168 0.00038162 61.46235168 0.00038162 62.69421387 -0.00271606 C68.18259629 0.01853379 68.18259629 0.01853379 69.296875 1.1328125 C71.82283759 1.36934773 74.32794707 1.55454942 76.859375 1.6953125 C77.57029297 1.73849609 78.28121094 1.78167969 79.01367188 1.82617188 C80.77449412 1.93253027 82.5356582 2.03320096 84.296875 2.1328125 C84.296875 2.4628125 84.296875 2.7928125 84.296875 3.1328125 C81.58846856 3.1604493 78.88035895 3.17994833 76.171875 3.1953125 C75.06005859 3.20788086 75.06005859 3.20788086 73.92578125 3.22070312 C69.36751694 3.2398555 64.89080771 3.03005941 60.34960938 2.6328125 C50.28917901 1.89803899 40.23040828 2.00868133 30.1484375 2.03515625 C28.0385237 2.0370253 25.92860946 2.0384469 23.81869507 2.03944397 C18.31151088 2.04323082 12.80435379 2.05302761 7.29718018 2.06414795 C1.65906134 2.07444523 -3.97906194 2.07895927 -9.6171875 2.08398438 C-20.64584513 2.09465396 -31.67448279 2.11168336 -42.703125 2.1328125 C-42.703125 1.8028125 -42.703125 1.4728125 -42.703125 1.1328125 C-28.457201 0.33668136 -14.26683497 -0.01746085 0 0 Z " fill="#36C382" transform="translate(234.703125,382.8671875)"/>
<path d="M0 0 C1.16082596 0.00424484 2.32165192 0.00848969 3.51765442 0.01286316 C7.18519376 0.02950801 10.85216109 0.06713387 14.51953125 0.10546875 C17.02277846 0.12053391 19.52603438 0.13421909 22.02929688 0.14648438 C28.13060009 0.1767989 34.23068375 0.23554931 40.33203125 0.29296875 C40.66203125 12.83296875 40.99203125 25.37296875 41.33203125 38.29296875 C39.33203125 36.29296875 39.33203125 36.29296875 39.10498047 32.94482422 C39.1052975 31.51656242 39.11661764 30.08827663 39.13671875 28.66015625 C39.13954865 27.90832062 39.14237854 27.15648499 39.14529419 26.38186646 C39.15650251 23.97707297 39.18160773 21.57264994 39.20703125 19.16796875 C39.21706023 17.53906787 39.22618622 15.91016117 39.234375 14.28125 C39.2564439 10.28501319 39.29097774 6.28905381 39.33203125 2.29296875 C32.53258284 2.41038259 25.73330012 2.53521709 18.93408203 2.6652832 C16.61966056 2.70867251 14.30520625 2.75034459 11.99072266 2.7902832 C8.66949552 2.84788907 5.34843433 2.91161126 2.02734375 2.9765625 C0.4679155 3.00163124 0.4679155 3.00163124 -1.12301636 3.02720642 C-2.08386139 3.04715164 -3.04470642 3.06709686 -4.03466797 3.08764648 C-4.88294159 3.10319077 -5.73121521 3.11873505 -6.60519409 3.13475037 C-8.7311518 3.16726833 -8.7311518 3.16726833 -10.66796875 4.29296875 C-11.82296875 4.27234375 -12.97796875 4.25171875 -14.16796875 4.23046875 C-17.72675341 3.88884063 -17.72675341 3.88884063 -19.66796875 6.29296875 C-23.29296875 6.41796875 -23.29296875 6.41796875 -26.66796875 6.29296875 C-20.4901742 -0.92820841 -8.67934146 -0.1218914 0 0 Z " fill="#D1FAE4" transform="translate(137.66796875,167.70703125)"/>
<path d="M0 0 C7.5931869 4.91323858 11.27491628 13.68132339 14 22 C14.18747803 22.56879883 14.37495605 23.13759766 14.56811523 23.72363281 C15.21852839 27.15181385 15.12173544 30.57148416 15.09765625 34.046875 C15.0962413 34.81807678 15.09482635 35.58927856 15.09336853 36.3838501 C15.08778534 38.83927338 15.07523595 41.29460442 15.0625 43.75 C15.05748283 45.41796743 15.0529203 47.08593629 15.04882812 48.75390625 C15.03782141 52.83597287 15.02056836 56.91797081 15 61 C10.14365099 61.0496911 5.28745224 61.08585664 0.4309082 61.10986328 C-1.21885763 61.11987851 -2.86860591 61.1334946 -4.51831055 61.15087891 C-6.89897005 61.17532542 -9.27939347 61.18652803 -11.66015625 61.1953125 C-12.75433617 61.21079636 -12.75433617 61.21079636 -13.87062073 61.22659302 C-18.61319411 61.22761619 -22.49416922 60.49418829 -27 59 C-27 58.67 -27 58.34 -27 58 C-25.35425434 57.97311849 -23.70838587 57.95365877 -22.0625 57.9375 C-21.14597656 57.92589844 -20.22945312 57.91429687 -19.28515625 57.90234375 C-17 58 -17 58 -16 59 C-13.85613343 59.15858842 -11.70733162 59.25129298 -9.55859375 59.31640625 C-8.25341797 59.35830078 -6.94824219 59.40019531 -5.60351562 59.44335938 C-4.2148467 59.48317608 -2.82617478 59.52288825 -1.4375 59.5625 C-0.04490817 59.60567989 1.34767028 59.649294 2.74023438 59.69335938 C6.16004801 59.79985876 9.57993763 59.90186923 13 60 C12.93061932 55.179768 12.84241623 50.36036228 12.73754883 45.54077148 C12.70451025 43.90479786 12.6764143 42.26871601 12.65356445 40.63256836 C12.48867254 28.03106794 12.48867254 28.03106794 9 16 C8.58482616 14.65163726 8.1878956 13.29747409 7.8125 11.9375 C7.544375 10.968125 7.27625 9.99875 7 9 C6.34 9 5.68 9 5 9 C2.82796 6.03812728 1.16438003 3.49314009 0 0 Z " fill="#74DB6E" transform="translate(236,181)"/>
<path d="M0 0 C19.14 0 38.28 0 58 0 C58 16.17 58 32.34 58 49 C57.67 49 57.34 49 57 49 C56.67 33.82 56.34 18.64 56 3 C37.52 2.67 19.04 2.34 0 2 C0 1.34 0 0.68 0 0 Z " fill="#55D89F" transform="translate(120,241)"/>
<path d="M0 0 C0.66 0 1.32 0 2 0 C2 24.75 2 49.5 2 75 C1.67 75 1.34 75 1 75 C0.28463233 69.08086227 -0.19268489 63.24332803 -0.3515625 57.28515625 C-0.37512314 56.47932602 -0.39868378 55.67349579 -0.42295837 54.84324646 C-0.49581763 52.24977742 -0.56130127 49.65620928 -0.625 47.0625 C-0.64779022 46.17981445 -0.67058044 45.29712891 -0.69406128 44.38769531 C-1.06564474 29.54723406 -0.9109334 14.82280743 0 0 Z " fill="#32C380" transform="translate(395,171)"/>
<path d="M0 0 C0.33 0 0.66 0 1 0 C1.33 15.18 1.66 30.36 2 46 C4.3511843 47.17559215 5.82717914 47.15516463 8.44970703 47.20532227 C9.37051056 47.22526749 10.29131409 47.24521271 11.24002075 47.26576233 C12.23589203 47.28247482 13.23176331 47.29918732 14.2578125 47.31640625 C15.27600067 47.33718735 16.29418884 47.35796844 17.3432312 47.37937927 C20.60375055 47.44489466 23.86435206 47.50376902 27.125 47.5625 C29.33203983 47.60568332 31.53907128 47.64929755 33.74609375 47.69335938 C39.16397501 47.80057805 44.58193846 47.90234074 50 48 C50 48.33 50 48.66 50 49 C33.5 49 17 49 0 49 C0 32.83 0 16.66 0 0 Z " fill="#17C777" transform="translate(251,120)"/>
<path d="M0 0 C5.0325 -0.061875 10.065 -0.12375 15.25 -0.1875 C17.59206543 -0.22846802 17.59206543 -0.22846802 19.98144531 -0.27026367 C28.38056184 -0.31983957 35.94116655 0.42871033 44 3 C43.01 3.66 42.02 4.32 41 5 C40.484375 4.67 39.96875 4.34 39.4375 4 C36.21973488 2.67989123 33.4429472 2.86757895 30 3 C30 2.34 30 1.68 30 1 C20.43 1 10.86 1 1 1 C1 11.89 1 22.78 1 34 C0.67 34 0.34 34 0 34 C0 22.78 0 11.56 0 0 Z " fill="#89DA79" transform="translate(178,168)"/>
<path d="M0 0 C0.33 0 0.66 0 1 0 C1.05001046 4.08931682 1.08600357 8.17851141 1.10986328 12.26806641 C1.11982603 13.65481676 1.13340118 15.04154665 1.15087891 16.42822266 C1.40710504 37.30311626 1.40710504 37.30311626 -2.57373047 41.76318359 C-3.27973389 42.37540771 -3.27973389 42.37540771 -4 43 C-3.125 36.125 -3.125 36.125 -2 35 C-1.85243002 32.49283162 -1.7650766 30.00960951 -1.71875 27.5 C-1.69113586 26.37368164 -1.69113586 26.37368164 -1.66296387 25.22460938 C-1.60403696 22.81648813 -1.55129132 20.40829529 -1.5 18 C-1.4325537 14.83317556 -1.3588858 11.66658916 -1.28125 8.5 C-1.26767456 7.76458984 -1.25409912 7.02917969 -1.2401123 6.27148438 C-1.11280181 1.11280181 -1.11280181 1.11280181 0 0 Z " fill="#2EC17D" transform="translate(396,272)"/>
<path d="M0 0 C0.33 0 0.66 0 1 0 C1.33 8.91 1.66 17.82 2 27 C1.34 27 0.68 27 0 27 C0 29.31 0 31.62 0 34 C-0.33 34 -0.66 34 -1 34 C-1 29.38 -1 24.76 -1 20 C-1.33 20 -1.66 20 -2 20 C-2.02689216 18.52093108 -2.04634621 17.04172517 -2.0625 15.5625 C-2.07410156 14.73878906 -2.08570313 13.91507813 -2.09765625 13.06640625 C-2 11 -2 11 -1 10 C-0.76712992 8.31816052 -0.58735834 6.6287584 -0.4375 4.9375 C-0.35371094 4.01839844 -0.26992188 3.09929687 -0.18359375 2.15234375 C-0.12300781 1.44207031 -0.06242187 0.73179687 0 0 Z " fill="#19B56B" transform="translate(395,144)"/>
<path d="M0 0 C0 0.66 0 1.32 0 2 C0.66 2 1.32 2 2 2 C2 2.66 2 3.32 2 4 C0.35 4.66 -1.3 5.32 -3 6 C-3 4.68 -3 3.36 -3 2 C-3.66 2 -4.32 2 -5 2 C-5.33 2.99 -5.66 3.98 -6 5 C-6.33 4.34 -6.66 3.68 -7 3 C-7.66 3 -8.32 3 -9 3 C-9.33 3.99 -9.66 4.98 -10 6 C-10.66 5.67 -11.32 5.34 -12 5 C-11.875 3.125 -11.875 3.125 -11 1 C-6.9875739 -0.91502155 -4.25648179 -1.25190641 0 0 Z " fill="#1ACA7A" transform="translate(351,371)"/>
<path d="M0 0 C1.64574566 -0.02688151 3.29161413 -0.04634123 4.9375 -0.0625 C5.85402344 -0.07410156 6.77054688 -0.08570313 7.71484375 -0.09765625 C10 0 10 0 11 1 C13.21687994 1.15873955 15.43855298 1.25133837 17.66015625 1.31640625 C18.65685585 1.3475779 18.65685585 1.3475779 19.6736908 1.37937927 C21.80318543 1.44493658 23.93280668 1.50378785 26.0625 1.5625 C27.50326847 1.60567939 28.94402399 1.64929349 30.38476562 1.69335938 C33.9230404 1.80062393 37.46145869 1.90187371 41 2 C41 2.33 41 2.66 41 3 C36.28606679 3.04970487 31.5722886 3.085863 26.8581543 3.10986328 C25.25689026 3.11987623 23.65564429 3.1334906 22.05444336 3.15087891 C19.74328124 3.17533565 17.43236238 3.18653029 15.12109375 3.1953125 C14.0597245 3.21079636 14.0597245 3.21079636 12.97691345 3.22659302 C8.24165735 3.22764468 4.44683503 2.46788729 0 1 C0 0.67 0 0.34 0 0 Z " fill="#8CD071" transform="translate(209,239)"/>
<path d="M0 0 C-0.639375 0.598125 -1.27875 1.19625 -1.9375 1.8125 C-4.20310389 3.90810337 -4.20310389 3.90810337 -5 7 C-6.36125 6.9071875 -6.36125 6.9071875 -7.75 6.8125 C-11.28982642 7.01672076 -12.44931155 7.64551835 -15 10 C-15.66 9.67 -16.32 9.34 -17 9 C-15.21024844 7.51851668 -13.41813943 6.03988094 -11.625 4.5625 C-10.62726563 3.73878906 -9.62953125 2.91507813 -8.6015625 2.06640625 C-5.13162067 -0.68974875 -4.16763279 -1.25028984 0 0 Z " fill="#21C77B" transform="translate(86,32)"/>
<path d="M0 0 C1.8871875 0.061875 1.8871875 0.061875 3.8125 0.125 C-0.26262801 4.20012801 -4.58979557 4.38102469 -10.08789062 4.3984375 C-10.92513672 4.39070313 -11.76238281 4.38296875 -12.625 4.375 C-13.87506836 4.38660156 -13.87506836 4.38660156 -15.15039062 4.3984375 C-19.89276656 4.38344184 -23.7322203 3.95057802 -28.1875 2.125 C-28.1875 1.795 -28.1875 1.465 -28.1875 1.125 C-25.8775 1.125 -23.5675 1.125 -21.1875 1.125 C-21.1875 1.785 -21.1875 2.445 -21.1875 3.125 C-18.91608891 3.01097936 -16.64535448 2.88341495 -14.375 2.75 C-12.47814453 2.64558594 -12.47814453 2.64558594 -10.54296875 2.5390625 C-6.41730593 2.02995859 -4.22880983 -0.1386495 0 0 Z " fill="#D1FCEE" transform="translate(227.1875,321.875)"/>
<path d="M0 0 C1.65 0 3.3 0 5 0 C4.61328125 0.50789062 4.2265625 1.01578125 3.828125 1.5390625 C0.74572807 5.61331983 -2.21571155 9.71647931 -5 14 C-5.33 12.68 -5.66 11.36 -6 10 C-5.34 10 -4.68 10 -4 10 C-3.67 7.36 -3.34 4.72 -3 2 C-2.01 2 -1.02 2 0 2 C0 1.34 0 0.68 0 0 Z " fill="#24D086" transform="translate(101,176)"/>
<path d="M0 0 C1.53333984 -0.00193359 1.53333984 -0.00193359 3.09765625 -0.00390625 C4.16886719 -0.00003906 5.24007812 0.00382812 6.34375 0.0078125 C7.95056641 0.00201172 7.95056641 0.00201172 9.58984375 -0.00390625 C11.12318359 -0.00197266 11.12318359 -0.00197266 12.6875 0 C13.62787109 0.00112793 14.56824219 0.00225586 15.53710938 0.00341797 C17.84375 0.1328125 17.84375 0.1328125 19.84375 1.1328125 C19.84375 1.7928125 19.84375 2.4528125 19.84375 3.1328125 C18.5134375 2.8853125 18.5134375 2.8853125 17.15625 2.6328125 C9.1519121 1.49166453 0.78815543 1.65478358 -7.15625 3.1328125 C-7.15625 2.4728125 -7.15625 1.8128125 -7.15625 1.1328125 C-4.62178127 -0.13442187 -2.83398046 0.00339922 0 0 Z " fill="#18CF7C" transform="translate(208.15625,82.8671875)"/>
<path d="M0 0 C0.33 0 0.66 0 1 0 C1.10957031 0.6290625 1.21914062 1.258125 1.33203125 1.90625 C2.75766426 9.60235013 4.67057323 16.40277825 9 23 C8.01 23 7.02 23 6 23 C6 22.01 6 21.02 6 20 C5.34 20 4.68 20 4 20 C4 19.01 4 18.02 4 17 C3.01 17 2.02 17 1 17 C1.020625 16.195625 1.04125 15.39125 1.0625 14.5625 C1.29633621 12.06645115 1.29633621 12.06645115 0 11 C-0.07226502 9.14712498 -0.0838122 7.29166122 -0.0625 5.4375 C-0.05347656 4.42558594 -0.04445312 3.41367187 -0.03515625 2.37109375 C-0.02355469 1.58863281 -0.01195312 0.80617188 0 0 Z " fill="#33D08C" transform="translate(177,290)"/>
<path d="M0 0 C-0.33 0.99 -0.66 1.98 -1 3 C-7.02370613 5.49541735 -13.00282787 5.23384937 -19.4375 5.125 C-20.45521484 5.11597656 -21.47292969 5.10695313 -22.52148438 5.09765625 C-25.01457156 5.07424698 -27.50715859 5.041457 -30 5 C-30 4.34 -30 3.68 -30 3 C-29.40050537 3.01571045 -28.80101074 3.0314209 -28.18334961 3.04760742 C-25.43483123 3.1104413 -22.68646458 3.14914235 -19.9375 3.1875 C-18.99455078 3.21263672 -18.05160156 3.23777344 -17.08007812 3.26367188 C-10.87565785 3.32852644 -5.58276016 0 0 0 Z " fill="#3ED192" transform="translate(233,322)"/>
<path d="M0 0 C4 5 4 5 8 10 C7.67 10.66 7.34 11.32 7 12 C5.1875 11.875 5.1875 11.875 3 11 C1.3125 8.0625 1.3125 8.0625 0 5 C-0.33 4.34 -0.66 3.68 -1 3 C-0.67 2.01 -0.34 1.02 0 0 Z " fill="#28CE83" transform="translate(378,58)"/>
<path d="M0 0 C1.65 0 3.3 0 5 0 C4.0022242 2.99332739 3.2477975 3.94766315 1 6 C-1.95409701 4.62845496 -4.44008376 3.01136276 -7 1 C-4.69 1.33 -2.38 1.66 0 2 C0 1.34 0 0.68 0 0 Z " fill="#22D080" transform="translate(67,362)"/>
<path d="M0 0 C0.99 0.33 1.98 0.66 3 1 C1.92492371 2.29854721 0.83956264 3.58858361 -0.25 4.875 C-0.85328125 5.59429687 -1.4565625 6.31359375 -2.078125 7.0546875 C-3.97087634 8.97052118 -5.53657727 9.96449045 -8 11 C-8 10.01 -8 9.02 -8 8 C-7.01 7.67 -6.02 7.34 -5 7 C-4.26676204 4.98491642 -4.26676204 4.98491642 -4 3 C-2.68 3 -1.36 3 0 3 C0 2.01 0 1.02 0 0 Z " fill="#30CB85" transform="translate(373,352)"/>
<path d="M0 0 C1.89668064 2.84502097 3.23263478 5.57299885 4.625 8.6875 C5.07101563 9.68136719 5.51703125 10.67523438 5.9765625 11.69921875 C6.31429687 12.45847656 6.65203125 13.21773437 7 14 C6.38125 13.814375 5.7625 13.62875 5.125 13.4375 C2.95839822 12.76313824 2.95839822 12.76313824 1 14 C1.020625 12.865625 1.04125 11.73125 1.0625 10.5625 C1.41577477 7.18424326 1.41577477 7.18424326 0 6 C-0.04080783 4.00041636 -0.04254356 1.99954746 0 0 Z " fill="#EEFDE4" transform="translate(179,207)"/>
<path d="M0 0 C-2.0459287 1.09603323 -3.85805649 1.96660153 -6.125 2.5 C-8.22679483 2.89277065 -8.22679483 2.89277065 -10 5 C-13.625 5.125 -13.625 5.125 -17 5 C-12.57008024 -0.41434637 -6.43179528 -0.22178604 0 0 Z " fill="#D3FCED" transform="translate(128,169)"/>
<path d="M0 0 C5.47200293 4.05788982 8.30076284 7.73776979 11 14 C10.34 14 9.68 14 9 14 C8.34 12.35 7.68 10.7 7 9 C6.34 9 5.68 9 5 9 C5 8.01 5 7.02 5 6 C4.34 6 3.68 6 3 6 C0 2.53846154 0 2.53846154 0 0 Z " fill="#03A358" transform="translate(323,178)"/>
<path d="M0 0 C1.22589844 0.01353516 1.22589844 0.01353516 2.4765625 0.02734375 C3.41628906 0.04474609 3.41628906 0.04474609 4.375 0.0625 C1.11647635 2.2348491 -2.21744728 4.13369658 -5.625 6.0625 C-5.955 4.4125 -6.285 2.7625 -6.625 1.0625 C-4.21954362 -0.14022819 -2.67503047 -0.03821472 0 0 Z " fill="#28D187" transform="translate(112.625,169.9375)"/>
<path d="M0 0 C0 3.42583257 -0.35337989 4.9931285 -2 8 C-4.2083871 9.87177383 -6.55074465 11.46102939 -9 13 C-7.50923566 9.7173068 -5.61379679 7.06922559 -3.375 4.25 C-2.74335937 3.45078125 -2.11171875 2.6515625 -1.4609375 1.828125 C-0.97882812 1.22484375 -0.49671875 0.6215625 0 0 Z " fill="#2CCA83" transform="translate(53,56)"/>
<path d="M0 0 C9.68925234 1.00233645 9.68925234 1.00233645 14 3 C14.875 5.125 14.875 5.125 15 7 C7.5 4 7.5 4 0 1 C0 0.67 0 0.34 0 0 Z " fill="#199549" transform="translate(216,169)"/>
<path d="M0 0 C0 3.31766523 -0.45250948 4.0703452 -2.3125 6.6875 C-2.74175781 7.31011719 -3.17101562 7.93273437 -3.61328125 8.57421875 C-4.07089844 9.04472656 -4.52851563 9.51523437 -5 10 C-5.99 10 -6.98 10 -8 10 C-8.33 10.66 -8.66 11.32 -9 12 C-9.66 11.34 -10.32 10.68 -11 10 C-10.18595703 9.41992188 -10.18595703 9.41992188 -9.35546875 8.828125 C-8.64003906 8.30734375 -7.92460937 7.7865625 -7.1875 7.25 C-6.47980469 6.73953125 -5.77210938 6.2290625 -5.04296875 5.703125 C-2.97022309 3.97517642 -1.52624146 2.21473524 0 0 Z " fill="#30CC88" transform="translate(244,311)"/>
<path d="M0 0 C10.55808656 -0.3690205 10.55808656 -0.3690205 15 2 C15 2.33 15 2.66 15 3 C9.47322267 3.19392201 5.24385089 2.7479503 0 1 C0 0.67 0 0.34 0 0 Z " fill="#9ADA7E" transform="translate(209,239)"/>
<path d="M0 0 C1.93884889 0.28256092 3.87605961 0.5763793 5.8125 0.875 C6.89144531 1.03742188 7.97039062 1.19984375 9.08203125 1.3671875 C12 2 12 2 15 4 C14.01 4.33 13.02 4.66 12 5 C11.4225 4.690625 10.845 4.38125 10.25 4.0625 C7.13221157 2.59021102 4.40010497 2.86922673 1 3 C0.67 2.01 0.34 1.02 0 0 Z " fill="#6ED76B" transform="translate(207,168)"/>
<path d="M0 0 C0.66 0.33 1.32 0.66 2 1 C-1.66666667 4.66666667 -5.33333333 8.33333333 -9 12 C-8.52575143 7.73176286 -6.04238597 5.82507269 -3 3 C-2.401875 2.401875 -1.80375 1.80375 -1.1875 1.1875 C-0.795625 0.795625 -0.40375 0.40375 0 0 Z " fill="#05A45A" transform="translate(193,90)"/>
<path d="M0 0 C0.53625 0.37125 1.0725 0.7425 1.625 1.125 C1.05910156 1.23457031 0.49320312 1.34414063 -0.08984375 1.45703125 C-1.19005859 1.69486328 -1.19005859 1.69486328 -2.3125 1.9375 C-3.04339844 2.08832031 -3.77429688 2.23914063 -4.52734375 2.39453125 C-5.13707031 2.63558594 -5.74679687 2.87664062 -6.375 3.125 C-6.705 4.115 -7.035 5.105 -7.375 6.125 C-8.035 5.795 -8.695 5.465 -9.375 5.125 C-9.25 3.25 -9.25 3.25 -8.375 1.125 C-5.17736297 -0.43828922 -3.40862085 -1.25580768 0 0 Z " fill="#0FC773" transform="translate(348.375,370.875)"/>
<path d="M0 0 C0.99 0 1.98 0 3 0 C3 1.32 3 2.64 3 4 C3.66 4 4.32 4 5 4 C5 4.99 5 5.98 5 7 C5.99 7 6.98 7 8 7 C7.67 8.32 7.34 9.64 7 11 C6.0158875 9.73299277 5.03788503 8.4612381 4.0625 7.1875 C3.51722656 6.47980469 2.97195312 5.77210938 2.41015625 5.04296875 C1 3 1 3 0 0 Z " fill="#D1FDEE" transform="translate(96,220)"/>
<path d="M0 0 C2.97 1.98 2.97 1.98 6 4 C3 6 3 6 1 6 C0.67 6.66 0.34 7.32 0 8 C0 7.34 0 6.68 0 6 C-0.66 5.67 -1.32 5.34 -2 5 C-1.34 4.67 -0.68 4.34 0 4 C-0.33 3.34 -0.66 2.68 -1 2 C-0.67 1.34 -0.34 0.68 0 0 Z " fill="#79D962" transform="translate(230,176)"/>
<path d="M0 0 C0.33 0.99 0.66 1.98 1 3 C-0.40445835 5.2636564 -2.1967913 7.0208685 -4 9 C-5.0625 7.125 -5.0625 7.125 -6 5 C-5.67 4.34 -5.34 3.68 -5 3 C-3.66666667 2.66666667 -2.33333333 2.33333333 -1 2 C-0.67 1.34 -0.34 0.68 0 0 Z " fill="#25CE83" transform="translate(384,339)"/>
<path d="M0 0 C0.66 0.33 1.32 0.66 2 1 C1.67 1.66 1.34 2.32 1 3 C0.34 3 -0.32 3 -1 3 C-1 3.99 -1 4.98 -1 6 C-2.98 6.33 -4.96 6.66 -7 7 C-4.78071806 4.09197539 -3.07030857 2.04687238 0 0 Z " fill="#D7FDF0" transform="translate(109,174)"/>
<path d="M0 0 C1.32 0 2.64 0 4 0 C4.99 2.97 5.98 5.94 7 9 C4.03595495 6.19195732 1.55500981 3.81684226 0 0 Z " fill="#2ECD85" transform="translate(51,352)"/>
<path d="M0 0 C2.31 0.66 4.62 1.32 7 2 C7 2.66 7 3.32 7 4 C7.99 4.33 8.98 4.66 10 5 C10 5.66 10 6.32 10 7 C6.66666667 5.33333333 3.33333333 3.66666667 0 2 C0 1.34 0 0.68 0 0 Z " fill="#03A257" transform="translate(228,87)"/>
<path d="M0 0 C0.99 0.33 1.98 0.66 3 1 C3.94921875 3.28515625 3.94921875 3.28515625 4.6875 6.0625 C4.93886719 6.98160156 5.19023438 7.90070313 5.44921875 8.84765625 C5.63097656 9.55792969 5.81273437 10.26820313 6 11 C3.12878998 8.30572729 1.6117451 5.60723903 0 2 C0 1.34 0 0.68 0 0 Z " fill="#32C684" transform="translate(38,331)"/>
<path d="M0 0 C0 3 0 3 -2.5 5.6875 C-3.325 6.450625 -4.15 7.21375 -5 8 C-5.66 7.34 -6.32 6.68 -7 6 C-4.69 4.02 -2.38 2.04 0 0 Z " fill="#16CF7B" transform="translate(325,231)"/>
<path d="M0 0 C0.66 0.33 1.32 0.66 2 1 C0.47291037 4.43595166 -1.59927045 7.11912454 -4 10 C-4.66 9.67 -5.32 9.34 -6 9 C-4.02 6.03 -2.04 3.06 0 0 Z " fill="#18CA79" transform="translate(332,221)"/>
<path d="M0 0 C-2.39763185 2.39763185 -3.33273498 2.34280586 -6.625 2.625 C-7.44226563 2.69976562 -8.25953125 2.77453125 -9.1015625 2.8515625 C-9.72804687 2.90054687 -10.35453125 2.94953125 -11 3 C-7.65817252 -1.0165182 -4.96805907 -0.24433077 0 0 Z " fill="#E2FEF6" transform="translate(231,322)"/>
<path d="M0 0 C2.9375 0.8125 2.9375 0.8125 6 2 C6.33 2.99 6.66 3.98 7 5 C7.99 5.33 8.98 5.66 10 6 C9.01 6.495 9.01 6.495 8 7 C6.66382648 6.02471263 5.3311249 5.04466681 4 4.0625 C3.2575 3.51722656 2.515 2.97195312 1.75 2.41015625 C1.1725 1.94480469 0.595 1.47945312 0 1 C0 0.67 0 0.34 0 0 Z " fill="#97D779" transform="translate(193,229)"/>
<path d="M0 0 C0.66 0 1.32 0 2 0 C2 0.99 2 1.98 2 3 C1.01 3.66 0.02 4.32 -1 5 C-1.33 5.99 -1.66 6.98 -2 8 C-2.66 8 -3.32 8 -4 8 C-2.87548273 5.0280615 -1.77706209 2.66559313 0 0 Z " fill="#2AC682" transform="translate(43,70)"/>
</svg>
